<svg xmlns="http://www.w3.org/2000/svg" viewBox="0 0 560.2 252.669"><rect width="560.2" height="252.669" style="fill:none"/><path d="M220.822,170.766c-1.069-2.463-2.463-3.384-5.135-3.384-2.7,0-4.333,1.276-4.333,3.414a2.69,2.69,0,0,0,1.454,2.581,11.7,11.7,0,0,0,3.681,1.188c2.671.594,4.1,1.158,5.223,2.048a5.366,5.366,0,0,1,1.959,4.334c0,3.739-2.909,6.143-7.45,6.143-4.244,0-7.212-2.137-8.221-5.936l2.345-.416c.831,2.879,2.76,4.305,5.876,4.305s5.046-1.544,5.046-4.038a3.18,3.18,0,0,0-1.039-2.493c-.831-.711-1.691-1.038-4.719-1.78a12.4,12.4,0,0,1-4.778-1.9,4.63,4.63,0,0,1-1.781-3.858c0-3.473,2.582-5.639,6.708-5.639,3.739,0,6.025,1.513,7.36,4.838Z"/><path d="M240.022,186.912c-.327.03-.624.03-.861.03a3.031,3.031,0,0,1-3.205-2.226,5.86,5.86,0,0,1-4.779,2.374c-2.879,0-4.9-1.781-4.9-4.274,0-2.285,1.513-3.918,4.274-4.66a21.152,21.152,0,0,1,5.253-.594v-.979c0-2.4-.95-3.5-3.057-3.5a6.283,6.283,0,0,0-4.452,1.929l-1.454-1.6a8.057,8.057,0,0,1,5.906-2.374c3.561,0,5.521,1.959,5.521,5.55V183.5c0,1.1.415,1.454,1.751,1.484Zm-4.215-7.6c-4.986.178-7.064,1.157-7.064,3.383,0,1.544,1.009,2.4,2.849,2.4,2.464,0,4.215-1.424,4.215-3.413Zm-2.167-14.84h3.236l-3.266,4.808h-1.691Z"/><path d="M243.521,171.3h2.463v2.375a4.958,4.958,0,0,1,4.719-2.642c3.325,0,5.135,2.167,5.135,6.173v9.617h-2.463v-9.794c0-2.672-1.01-3.859-3.295-3.859a3.865,3.865,0,0,0-4.1,4.155v9.5h-2.463Z"/><path d="M267.8,183.44c3.5,0,5.461,1.513,5.461,4.184,0,3.058-2.82,4.987-7.331,4.987-4.185,0-6.856-1.662-6.856-4.274,0-1.395.861-2.494,2.642-3.324a2.624,2.624,0,0,1-1.514-2.493,2.919,2.919,0,0,1,1.691-2.642,4.654,4.654,0,0,1-1.9-3.8c0-3,2.315-5.046,5.7-5.046a6.957,6.957,0,0,1,3.087.653q1.959-.267,4.452-.623v2.226h-2.315a4.5,4.5,0,0,1,1.009,2.967c0,3.058-2.255,4.928-5.876,4.928a6.821,6.821,0,0,1-2.82-.535,1.8,1.8,0,0,0-.8,1.455c0,1.009.534,1.336,2.285,1.336Zm-3.384,2.136c-.237,0-.742-.029-.979-.059-1.366.683-1.959,1.484-1.959,2.582,0,1.692,1.513,2.553,4.511,2.553,3.206,0,4.868-1.009,4.868-2.909,0-1.454-1.039-2.167-3.087-2.167Zm-1.959-9.5c0,1.929,1.366,3.146,3.592,3.146,2.2,0,3.413-1.1,3.413-3.087,0-1.9-1.366-3.146-3.532-3.146S262.453,174.149,262.453,176.079Z"/><path d="M282.542,171.3h2.374v-4.036l2.464-.594v4.63H291.3v2.049H287.38v9.467c0,1.514.564,2.227,1.781,2.227a3.218,3.218,0,0,0,2.107-.743l.95,1.692a4.743,4.743,0,0,1-3.206,1.1c-2.523,0-4.1-1.454-4.1-3.8v-9.942h-2.374Z"/><path d="M308.184,186.912c-.327.03-.623.03-.861.03a3.031,3.031,0,0,1-3.2-2.226,5.86,5.86,0,0,1-4.779,2.374c-2.879,0-4.9-1.781-4.9-4.274,0-2.285,1.513-3.918,4.274-4.66a21.152,21.152,0,0,1,5.253-.594v-.979c0-2.4-.95-3.5-3.057-3.5a6.285,6.285,0,0,0-4.452,1.929l-1.454-1.6a8.057,8.057,0,0,1,5.906-2.374c3.561,0,5.521,1.959,5.521,5.55V183.5c0,1.1.415,1.454,1.751,1.484Zm-4.215-7.6c-4.986.178-7.064,1.157-7.064,3.383,0,1.544,1.009,2.4,2.849,2.4,2.464,0,4.215-1.424,4.215-3.413Z"/><path d="M324.742,179.047c0,4.689-3.057,8.043-7.36,8.043-4.215,0-7.3-3.383-7.3-8.014,0-4.689,3.057-8.043,7.391-8.043C321.685,171.033,324.742,174.416,324.742,179.047Zm-12.109.059c0,3.651,1.84,5.937,4.749,5.937,2.938,0,4.808-2.316,4.808-5.967,0-3.62-1.87-6-4.719-6C314.473,173.081,312.633,175.336,312.633,179.106Z"/><path d="M332.632,171.3H335.3l4.154,13.03,4.067-13.03h2.553l-5.224,15.523h-2.908Z"/><path d="M346.98,164.474h3.235l1.722,4.808h-1.693Zm2.434,6.826h2.464v15.523h-2.464Z"/><path d="M375.619,183.5a6.855,6.855,0,0,1-6.292,3.591c-4.275,0-7.243-3.294-7.243-8.014,0-4.807,2.88-8.043,7.154-8.043a6.577,6.577,0,0,1,6.024,3.383l-1.958,1.307c-1.277-1.989-2.256-2.642-4.037-2.642-2.909,0-4.63,2.226-4.63,6.055,0,3.769,1.692,5.907,4.69,5.907,1.988,0,3.146-.713,4.392-2.732Z"/><path d="M388.2,184.448a4.957,4.957,0,0,1-4.718,2.642c-3.265,0-5.016-2.167-5.016-6.173V171.3h2.464V181.1c0,2.671.978,3.858,3.175,3.858a3.864,3.864,0,0,0,4.1-4.155v-9.5h2.464v15.523H388.2Z"/><path d="M408.469,179.047c0,4.689-3.058,8.043-7.361,8.043-4.215,0-7.3-3.383-7.3-8.014,0-4.689,3.056-8.043,7.389-8.043C405.411,171.033,408.469,174.416,408.469,179.047Zm-12.11.059c0,3.651,1.84,5.937,4.749,5.937,2.939,0,4.808-2.316,4.808-5.967,0-3.62-1.869-6-4.72-6C398.2,173.081,396.359,175.336,396.359,179.106Zm3.829-14.632h2.225l2.88,4.808H403.6l-2.345-2.7-2.344,2.7h-1.633Z"/><path d="M424.67,183.5a6.853,6.853,0,0,1-6.293,3.591c-4.273,0-7.24-3.294-7.24-8.014,0-4.807,2.878-8.043,7.151-8.043a6.581,6.581,0,0,1,6.026,3.383l-1.959,1.307c-1.276-1.989-2.256-2.642-4.037-2.642-2.908,0-4.629,2.226-4.629,6.055,0,3.769,1.691,5.907,4.688,5.907,1.989,0,3.146-.713,4.393-2.732Z"/><path d="M443.631,174.922a4.518,4.518,0,0,0-3.769-1.841c-1.84,0-2.88.772-2.88,2.108a1.847,1.847,0,0,0,.772,1.543,8.255,8.255,0,0,0,2.791.979c2.374.564,3.2.92,4.095,1.721a4.089,4.089,0,0,1,1.216,3.028c0,2.82-2.284,4.63-5.846,4.63a7.554,7.554,0,0,1-6.41-3l1.78-1.455c1.394,1.84,2.463,2.405,4.541,2.405,2.285,0,3.532-.862,3.532-2.375a1.969,1.969,0,0,0-.891-1.721c-.593-.416-.949-.5-3.116-1.039-3.472-.832-4.868-2.167-4.868-4.572,0-2.67,2.019-4.3,5.314-4.3a6.433,6.433,0,0,1,5.341,2.256Z"/><path d="M463.069,179.047c0,4.689-3.058,8.043-7.362,8.043-4.214,0-7.3-3.383-7.3-8.014,0-4.689,3.057-8.043,7.39-8.043C460.011,171.033,463.069,174.416,463.069,179.047Zm-12.11.059c0,3.651,1.84,5.937,4.748,5.937,2.94,0,4.81-2.316,4.81-5.967,0-3.62-1.87-6-4.72-6C452.8,173.081,450.959,175.336,450.959,179.106Zm3.828-14.632h2.226l2.88,4.808H458.2l-2.344-2.7-2.345,2.7h-1.633Z"/><path d="M463.037,164.474h3.236l-3.265,4.808h-1.691Z"/><path d="M466.656,171.3h2.463v2.375a4.96,4.96,0,0,1,4.72-2.642c3.325,0,5.135,2.167,5.135,6.173v9.617h-2.463v-9.794c0-2.672-1.01-3.859-3.3-3.859a3.866,3.866,0,0,0-4.1,4.155v9.5h-2.463Z"/><path d="M491.14,183.44c3.5,0,5.46,1.513,5.46,4.184,0,3.058-2.819,4.987-7.33,4.987-4.186,0-6.856-1.662-6.856-4.274,0-1.395.859-2.494,2.64-3.324a2.625,2.625,0,0,1-1.513-2.493,2.919,2.919,0,0,1,1.692-2.642,4.652,4.652,0,0,1-1.9-3.8c0-3,2.314-5.046,5.7-5.046a6.955,6.955,0,0,1,3.086.653q1.959-.267,4.452-.623v2.226h-2.314a4.5,4.5,0,0,1,1.008,2.967c0,3.058-2.255,4.928-5.875,4.928a6.826,6.826,0,0,1-2.821-.535,1.8,1.8,0,0,0-.8,1.455c0,1.009.533,1.336,2.286,1.336Zm-3.385,2.136c-.238,0-.742-.029-.978-.059-1.366.683-1.959,1.484-1.959,2.582,0,1.692,1.512,2.553,4.511,2.553,3.206,0,4.867-1.009,4.867-2.909,0-1.454-1.038-2.167-3.086-2.167Zm-1.959-9.5c0,1.929,1.366,3.146,3.593,3.146,2.195,0,3.412-1.1,3.412-3.087,0-1.9-1.366-3.146-3.531-3.146S485.8,174.149,485.8,176.079Z"/><path d="M303.067,191.316a1.913,1.913,0,0,1-1.9,1.9,1.9,1.9,0,1,1,0-3.8A1.913,1.913,0,0,1,303.067,191.316Z"/><path d="M403.108,191.315a1.914,1.914,0,0,1-1.9,1.9,1.9,1.9,0,0,1,0-3.8A1.914,1.914,0,0,1,403.108,191.315Z"/><path d="M248.8,110.3a13.766,13.766,0,0,0,8.8-13c0-11.7-8.3-17.5-19.7-17.5H208v63.6h32.5c10,0,19.8-7,19.8-17.7C260.3,113,248.8,110.4,248.8,110.3ZM223.6,93h11.6a5.669,5.669,0,0,1,6,6,5.927,5.927,0,0,1-6.3,5.8H223.6V93Zm11.7,37.1H223.6V117.6H235c5.7,0,8.4,2.5,8.4,6.2C243.4,128.4,240,130.1,235.3,130.1Z" style="fill:#ed0007;fill-rule:evenodd"/><path d="M294.7,78.2c-18.4,0-29.2,14.7-29.2,33.3,0,18.7,10.8,33.3,29.2,33.3,18.5,0,29.2-14.6,29.2-33.3C323.9,92.9,313.2,78.2,294.7,78.2Zm0,51.4c-9,0-13.5-8.1-13.5-18.1s4.5-18,13.5-18,13.6,8.1,13.6,18C308.3,121.6,303.7,129.6,294.7,129.6Z" style="fill:#ed0007;fill-rule:evenodd"/><path d="M357.8,104.8l-2.2-.5c-5.4-1.1-9.7-2.5-9.7-6.4,0-4.2,4.1-5.9,7.7-5.9a17.894,17.894,0,0,1,13,5.9l9.9-9.8c-4.5-5.1-11.8-10-23.2-10-13.4,0-23.6,7.5-23.6,20,0,11.4,8.2,17,18.2,19.1l2.2.5c8.3,1.7,11.4,3,11.4,7,0,3.8-3.4,6.3-8.6,6.3-6.2,0-11.8-2.7-16.1-8.2l-10.1,10c5.6,6.7,12.7,11.9,26.4,11.9,11.9,0,24.6-6.8,24.6-20.7C377.9,109.5,366.9,106.7,357.8,104.8Z" style="fill:#ed0007;fill-rule:evenodd"/><path d="M413.3,129.6c-7,0-14.3-5.8-14.3-18.5,0-11.3,6.8-17.6,13.9-17.6,5.6,0,8.9,2.6,11.5,7.1l12.8-8.5c-6.4-9.7-14-13.8-24.5-13.8-19.2,0-29.6,14.9-29.6,32.9,0,18.9,11.5,33.7,29.4,33.7,12.6,0,18.6-4.4,25.1-13.8l-12.9-8.7C422.1,126.6,419.3,129.6,413.3,129.6Z" style="fill:#ed0007;fill-rule:evenodd"/><polygon points="479.9 79.8 479.9 103.2 460.6 103.2 460.6 79.8 443.9 79.8 443.9 143.4 460.6 143.4 460.6 118.3 479.9 118.3 479.9 143.4 496.6 143.4 496.6 79.8 479.9 79.8" style="fill:#ed0007;fill-rule:evenodd"/><path d="M111.8,63.6A48.2,48.2,0,1,0,160,111.8,48.226,48.226,0,0,0,111.8,63.6Zm0,91.9a43.7,43.7,0,1,1,43.7-43.7A43.745,43.745,0,0,1,111.8,155.5Z"/><path d="M131.7,81.7h-3.3V98.2H95.3V81.7H91.9a36.063,36.063,0,0,0,0,60.2h3.4V125.4h33.1v16.5h3.3a36.063,36.063,0,0,0,0-60.2Zm-41,53.7a31.572,31.572,0,0,1,0-47.2Zm37.7-14.6H95.3V102.7h33.1Zm4.5,14.5v-10h0V98.2h0v-10a31.66,31.66,0,0,1,0,47.1Z"/></svg>