<svg xmlns="http://www.w3.org/2000/svg" viewBox="0 0 192 192"><path d="M132.388 78.484l2.738 7.517L97.37 99.758l-.005-.013A3.965 3.965 0 0 1 96 100a4 4 0 0 1-4-4 3.99 3.99 0 0 1 2.636-3.745l-.005-.013 37.757-13.758zm-32.67-34.353c11.267.795 21.746 5.132 30.304 12.542l5.236-6.048c-9.876-8.552-21.97-13.557-34.977-14.475l-.564 7.98zm-8.02-7.979c-12.984.92-25.06 5.916-34.924 14.445l5.233 6.051c8.547-7.39 19.01-11.718 30.257-12.516l-.567-7.98zm64.13 55.544c-.917-13.008-5.923-25.103-14.474-34.979l-6.048 5.238c7.41 8.557 11.747 19.036 12.542 30.304l7.98-.563zm-7.98 8.017c-.799 11.246-5.127 21.709-12.517 30.256l6.052 5.233c8.529-9.865 13.523-21.94 14.444-34.923l-7.98-.566zM36.21 91.696l7.98.563c.795-11.268 5.132-21.747 12.542-30.304l-6.047-5.238c-8.552 9.876-13.557 21.971-14.475 34.979zm.002 8.583c.92 12.982 5.915 25.058 14.444 34.923l6.052-5.233c-7.39-8.547-11.719-19.01-12.517-30.256l-7.98.566zM96 16c-44.112 0-80 35.888-80 80 0 21.37 8.321 41.459 23.431 56.569l5.657-5.657C31.49 133.313 24 115.232 24 96c0-39.701 32.299-72 72-72s72 32.299 72 72c0 19.232-7.49 37.313-21.088 50.912l5.657 5.657C167.679 137.459 176 117.369 176 96c0-44.112-35.888-80-80-80z"/></svg>